<svg xmlns="http://www.w3.org/2000/svg" width="70.51" height="16.214" viewBox="0 0 70.51 16.214"><path d="M1.078,0H4.994c.594,0,.924-.308.924-.77,0-.4-.242-.616-.682-.814-.33-.154-.506-.22-.506-.506a3.2,3.2,0,0,1,.814-1.826,2.6,2.6,0,0,1,1.716-.44H9.834a1.717,1.717,0,0,1,1.65.7,3.436,3.436,0,0,1,.55,1.452c0,.484-.308.462-.638.616a.79.79,0,0,0-.528.748c0,.682.4.836,1.21.836H16.94c.66,0,.99-.176.99-.726,0-.66-.4-.748-.9-.968-.814-.374-.99-.968-1.386-2.068L11.55-14.85c-.286-.77-.33-.792-.924-.792H8.734c-.748,0-.66.044-.968.7L2.618-3.74c-.462.99-.792,1.628-1.364,1.87C.726-1.65.132-1.65.132-.836.132-.308.462,0,1.078,0ZM6.732-7.216l1.606-3.916c.088-.242.242-.374.352-.374.088,0,.2.132.286.374L10.34-7.37a1.4,1.4,0,0,1,.11.506c0,.33-.814.572-2.354.572-1.012,0-1.452-.088-1.452-.528A1.439,1.439,0,0,1,6.732-7.216ZM20.79-12.1V-.374c0,.462.132.682.55.682a1.518,1.518,0,0,0,.77-.286l1.782-1.034A5.289,5.289,0,0,0,27.126.2c2.442,0,4.488-2.178,4.488-5.236a5.348,5.348,0,0,0-1.694-4.07,5.007,5.007,0,0,0-3.454-1.474,3.548,3.548,0,0,0-2.6,1.012v-5.7c0-.44-.088-.638-.374-.638a1.3,1.3,0,0,0-.572.176l-2.266,1.166c-.7.352-1.056.66-1.056.946,0,.44.33.506.77.682C20.68-12.8,20.79-12.606,20.79-12.1Zm2.97,6.578C23.76-7.832,24.6-9,26.2-9c1.408,0,2.486,1.144,2.486,2.992,0,2.376-1.32,4.07-2.794,4.07C24.486-1.936,23.76-3.146,23.76-5.522ZM40.348.264c3.564,0,5.786-1.936,5.786-4.818a5.7,5.7,0,0,0-2.09-4.488A6.646,6.646,0,0,0,39.8-10.6a5.36,5.36,0,0,0-4.114,1.672A5.419,5.419,0,0,0,34.122-5.06C34.122-1.826,36.41.264,40.348.264ZM37.356-6.952c0-1.43.7-2.288,1.738-2.288a3.472,3.472,0,0,1,2.728,2.134,7.871,7.871,0,0,1,.946,3.432c0,1.474-.748,2.354-1.848,2.354s-1.98-.792-2.75-2.4A7.541,7.541,0,0,1,37.356-6.952ZM51.48-10.494l-2.112.924c-.594.264-.9.572-.9.858,0,.594.77.594,1.012.836.2.2.22.616.22,1.254v1.76a10,10,0,0,0,.374,3.608,2.515,2.515,0,0,0,2.464,1.5,4.573,4.573,0,0,0,3.3-1.628l.044.836c.022.484.154.55.7.55h2.882c.528,0,.836-.264.836-.7,0-.528-.418-.616-.814-.9a1.168,1.168,0,0,1-.506-1.1v-7.3c0-.484-.088-.726-.4-.726a1.45,1.45,0,0,0-.594.2l-2.4,1.078c-.616.286-.9.594-.9.88,0,.4.264.484.7.66s.484.286.484.792v2.75c0,1.342-.77,2.178-1.782,2.178-1.188,0-1.342-1.166-1.342-3.718V-9.724c0-.638-.11-.946-.528-.946A2.039,2.039,0,0,0,51.48-10.494Zm12.386,1.98v4.862a16.5,16.5,0,0,1-.242,1.8c0,.99,1.386,2.112,3.168,2.112,2.332,0,3.85-1.3,3.85-2.266A.612.612,0,0,0,70-2.64c-.594,0-1.364.836-2.024.836-.814,0-.968-.462-.968-1.474v-5.3H69.74c.484,0,.726-.528.726-1.408,0-.308-.088-.352-.374-.352h-3.1v-2.816c0-.814-.088-1.188-.55-1.188-.286,0-.506.374-.968.924L62.524-9.944c-.264.308-.506.506-.506.88s.242.55.726.55Z" transform="translate(-0.132 15.906)" fill="#fff"/></svg>