<svg xmlns="http://www.w3.org/2000/svg" width="81.84" height="16.28" viewBox="0 0 81.84 16.28"><path d="M1.5-13.068,5.786-.616c.176.484.33.616.748.616h1.54c.418,0,.572-.066.726-.506l1.848-4.95a9.315,9.315,0,0,0,.4-1.562,9.02,9.02,0,0,0,.4,1.606l1.76,4.8c.2.55.374.616.836.616h1.518c.528,0,.594-.264.726-.66l4.158-11.968a3.281,3.281,0,0,1,.726-1.474c.308-.2.77-.2.77-.814,0-.462-.308-.726-.924-.726H17.732c-.572,0-.836.242-.836.682,0,.638,1.1.814,1.1,1.474a1.931,1.931,0,0,1-.154.616L15.576-6.38a9.844,9.844,0,0,0-.4,1.738A8.851,8.851,0,0,0,14.7-6.4L13.508-9.57a3.711,3.711,0,0,1-.286-.9c0-.528.9-.484.9-1.32a.765.765,0,0,0-.858-.77H9.5c-.594,0-.924.286-.924.77A.878.878,0,0,0,9.02-11c.352.2.836.242.836.682a1.531,1.531,0,0,1-.088.506L8.514-6.49a8.8,8.8,0,0,0-.4,1.76,9.229,9.229,0,0,0-.374-1.782L5.5-13.134a2.249,2.249,0,0,1-.154-.616c0-.44.946-.44.946-1.21,0-.418-.286-.682-.814-.682H1.012c-.55,0-.858.264-.858.726,0,.374.176.572.55.814A1.7,1.7,0,0,1,1.5-13.068Zm24.42,8.932L31.9-6.094c.462-.154.638-.22.638-.462A4.43,4.43,0,0,0,31.526-8.69,4.932,4.932,0,0,0,27.412-10.6a5.7,5.7,0,0,0-3.85,1.54,5.079,5.079,0,0,0-1.65,3.828c0,3.146,2.42,5.5,5.874,5.5a6.694,6.694,0,0,0,4.422-1.65,1.838,1.838,0,0,0,.726-1.166.485.485,0,0,0-.506-.506c-.33,0-.77.352-1.5.814a3.865,3.865,0,0,1-2,.572A3.047,3.047,0,0,1,25.916-4.136Zm-.374-1.122a6.739,6.739,0,0,1-.352-1.8c0-1.276.7-2.09,1.65-2.09A2.418,2.418,0,0,1,29-6.8c0,.22-.176.418-.528.528ZM38.874-4.136l5.984-1.958c.462-.154.638-.22.638-.462A4.43,4.43,0,0,0,44.484-8.69,4.932,4.932,0,0,0,40.37-10.6a5.7,5.7,0,0,0-3.85,1.54,5.079,5.079,0,0,0-1.65,3.828c0,3.146,2.42,5.5,5.874,5.5a6.694,6.694,0,0,0,4.422-1.65,1.838,1.838,0,0,0,.726-1.166.485.485,0,0,0-.506-.506c-.33,0-.77.352-1.5.814a3.865,3.865,0,0,1-2,.572A3.047,3.047,0,0,1,38.874-4.136ZM38.5-5.258a13.956,13.956,0,0,1-.352-1.8s.7-2.09,1.65-2.09A2.418,2.418,0,0,1,41.954-6.8c0,.22-.176.418-.528.528ZM48.994-11.7v8.976a1.154,1.154,0,0,1-.484,1.1c-.4.286-.814.374-.814.9A.72.72,0,0,0,48.51,0H52.6a.72.72,0,0,0,.814-.726c0-.528-.4-.616-.792-.9a1.168,1.168,0,0,1-.506-1.1v-1.54L53.5-5.544,55.946-.66c.242.506.352.66.77.66h2.442A.6.6,0,0,0,59.8-.638c0-.484-.176-.572-.484-.748-.594-.308-.858-.946-1.342-1.892L55.792-7.7a3.435,3.435,0,0,1,1.65-1.188c.616-.154,1.034-.242,1.034-.814,0-.484-.33-.638-.99-.638H54.3c-.616,0-.9.176-.9.616,0,.616.9.616.9.946,0,.374-.7,1.166-2.134,2.376v-8.866c0-.44-.11-.638-.44-.638a.991.991,0,0,0-.55.2L48.62-14.146c-.594.352-.88.616-.88.9,0,.418.308.506.77.682C48.95-12.386,48.994-12.254,48.994-11.7Zm27.874,2.31,4.4-3.982c.352-.33.55-.572.55-.88a.759.759,0,0,0-.792-.7h-.55l-4.422.154c-.726.022-1.1.022-1.122.022-1.408,0-1.738-.7-2.156-.7-.286,0-.44.242-.66.726L70.532-11.33a2.054,2.054,0,0,0-.242.814.493.493,0,0,0,.506.484c.484,0,.792-.682,1.518-1.232a3.8,3.8,0,0,1,2.6-.7h1.782L72.908-8.6a.745.745,0,0,0-.33.55.424.424,0,0,0,.484.462c.462,0,1.078-.22,1.8-.22a2.9,2.9,0,0,1,2.926,2.992A2.879,2.879,0,0,1,75-1.716c-1.078,0-1.738-.572-1.738-1.276a.937.937,0,0,1,.88-.924c.132,0,.264.044.352.044.066,0,.11-.066.11-.2a2.3,2.3,0,0,0-2.42-1.936A2.51,2.51,0,0,0,69.85-3.432c0,2.244,1.958,3.806,5.368,3.806,4.18,0,6.776-2.2,6.776-5.368C81.994-7.678,80.124-9.372,76.868-9.394Z" transform="translate(-0.154 15.906)" fill="#fff"/></svg>