<svg xmlns="http://www.w3.org/2000/svg" width="88.066" height="20.108" viewBox="0 0 88.066 20.108"><path d="M1.1-2.926,2.75-.264c.4.638.66,1.012,1.122,1.012.748,0,.88-1.078,1.32-1.078a34.091,34.091,0,0,0,4.95.55c4.268,0,6.666-2.068,6.666-4.972,0-2.948-1.8-4.532-5.676-5.676-3.124-.924-4.95-1.1-4.95-2.244,0-.726.814-1.232,2.31-1.232a6.433,6.433,0,0,1,3.344,1.078c.946.572,1.5,1.078,2,1.078a.62.62,0,0,0,.638-.616c0-.374-.264-.726-.682-1.21l-1.76-2.046c-.484-.572-.858-.88-1.254-.88a.62.62,0,0,0-.572.44.642.642,0,0,1-.66.44,19.468,19.468,0,0,0-2.728-.286c-3.08,0-5.126,1.672-5.126,3.96A3.641,3.641,0,0,0,3.586-8.8,24.6,24.6,0,0,0,8.14-7.062c3.014,1.012,4.532,1.694,4.532,3.036,0,1.166-1.276,2.068-3.608,2.068A10.245,10.245,0,0,1,3.212-3.542c-.9-.572-1.408-1.166-1.98-1.166A.574.574,0,0,0,.66-4.07,2.354,2.354,0,0,0,1.1-2.926ZM23.782.9V-1.65A4.553,4.553,0,0,0,27.3.2c2.2,0,4.224-2.134,4.224-5.1,0-3.278-2.178-5.654-4.62-5.654A3.845,3.845,0,0,0,23.76-8.734V-9.966c0-.462-.088-.66-.4-.66a1.3,1.3,0,0,0-.572.176L20.438-9.24c-.748.374-1.122.682-1.122.99,0,.418.308.484.814.682.484.176.528.33.528.858V.9A1.154,1.154,0,0,1,20.174,2c-.4.286-.814.352-.814.88a.72.72,0,0,0,.814.726h4.092a.738.738,0,0,0,.836-.726c0-.528-.418-.594-.814-.88A1.168,1.168,0,0,1,23.782.9ZM26.554-9c1.276,0,2.2,1.056,2.2,2.75A4.468,4.468,0,0,1,27.478-3.3,2.859,2.859,0,0,1,25.41-2.288c-1.122,0-1.8-1.012-1.8-2.882C23.606-7.414,24.9-9,26.554-9ZM38.148-4.136l5.984-1.958c.462-.154.638-.22.638-.462A4.43,4.43,0,0,0,43.758-8.69,4.932,4.932,0,0,0,39.644-10.6a5.7,5.7,0,0,0-3.85,1.54,5.079,5.079,0,0,0-1.65,3.828c0,3.146,2.42,5.5,5.874,5.5a6.694,6.694,0,0,0,4.422-1.65,1.838,1.838,0,0,0,.726-1.166.485.485,0,0,0-.506-.506c-.33,0-.77.352-1.5.814a3.865,3.865,0,0,1-2,.572A3.047,3.047,0,0,1,38.148-4.136Zm-.374-1.122a6.739,6.739,0,0,1-.352-1.8c0-1.276.7-2.09,1.65-2.09A2.418,2.418,0,0,1,41.228-6.8c0,.22-.176.418-.528.528Zm18.9-1.166L57.706-8.6a.91.91,0,0,0,.11-.418c0-.506-1.892-1.584-4.246-1.584a6.423,6.423,0,0,0-4.268,1.5,5.439,5.439,0,0,0-1.98,4.048c0,3.146,2.354,5.3,5.9,5.3a5.335,5.335,0,0,0,4.048-1.584,2.7,2.7,0,0,0,.946-1.584.51.51,0,0,0-.506-.55c-.374,0-.66.418-1.144.858a3.719,3.719,0,0,1-2.574,1.1c-1.738,0-3.036-1.606-3.036-4.048,0-2.288.946-3.63,2.332-3.63A2.174,2.174,0,0,1,55.264-7.5c.33.99.4,1.54.836,1.54C56.342-5.962,56.518-6.116,56.672-6.424Zm4.8-.748v4.444a1.154,1.154,0,0,1-.484,1.1c-.4.286-.814.374-.814.9A.72.72,0,0,0,60.984,0h4.092a.738.738,0,0,0,.836-.726c0-.528-.418-.616-.814-.9a1.168,1.168,0,0,1-.506-1.1v-7.15c0-.484-.088-.726-.4-.726a1.616,1.616,0,0,0-.572.2L61.16-9.328c-.55.242-.88.462-.88.77,0,.374.286.44.726.616C61.424-7.788,61.468-7.656,61.468-7.172ZM62-11.9c1.408,0,2.684-.968,2.684-1.98a.994.994,0,0,0-1.122-.968c-1.474,0-2.794,1.034-2.794,2C60.764-12.276,61.2-11.9,62-11.9ZM76.362-1.078A3.08,3.08,0,0,0,78.936.154c1.408,0,2.244-.572,2.244-1.408,0-.44-.176-.7-.308-.7-.066,0-.2.22-.528.22-.616,0-1.012-.55-1.364-1.694L77.9-6.842c-.814-2.618-1.98-3.762-4.29-3.762-2.574,0-4.312,1.54-4.312,2.442a.494.494,0,0,0,.484.55c.572,0,1.32-1.078,2.706-1.078,1.32,0,1.826.594,2.244,2.178-.264-.022-.55-.022-.792-.022-3.476,0-5.478,1.5-5.478,3.74,0,1.716,1.452,3.036,3.74,3.036A7.486,7.486,0,0,0,76.362-1.078ZM75.328-4.532l.33,1.144a2.388,2.388,0,0,1,.088.55c0,.748-.726,1.254-1.892,1.254A1.764,1.764,0,0,1,71.9-3.322c0-1.078.836-1.848,2.2-1.848C74.8-5.17,75.2-4.972,75.328-4.532ZM84.26-11.7v8.976a1.168,1.168,0,0,1-.506,1.1c-.4.286-.814.374-.814.9A.738.738,0,0,0,83.776,0H87.89a.738.738,0,0,0,.836-.726c0-.528-.418-.616-.814-.9a1.168,1.168,0,0,1-.506-1.1v-12.54c0-.44-.088-.638-.418-.638a1.055,1.055,0,0,0-.572.2l-2.53,1.562c-.594.352-.88.616-.88.9,0,.418.286.506.748.682C84.194-12.386,84.26-12.254,84.26-11.7Z" transform="translate(-0.66 16.5)" fill="#fff"/></svg>