<svg xmlns="http://www.w3.org/2000/svg" width="82.148" height="16.61" viewBox="0 0 82.148 16.61"><path d="M1.078,0H4.994c.594,0,.924-.308.924-.77,0-.4-.242-.616-.682-.814-.33-.154-.506-.22-.506-.506a3.2,3.2,0,0,1,.814-1.826,2.6,2.6,0,0,1,1.716-.44H9.834a1.717,1.717,0,0,1,1.65.7,3.436,3.436,0,0,1,.55,1.452c0,.484-.308.462-.638.616a.79.79,0,0,0-.528.748c0,.682.4.836,1.21.836H16.94c.66,0,.99-.176.99-.726,0-.66-.4-.748-.9-.968-.814-.374-.99-.968-1.386-2.068L11.55-14.85c-.286-.77-.33-.792-.924-.792H8.734c-.748,0-.66.044-.968.7L2.618-3.74c-.462.99-.792,1.628-1.364,1.87C.726-1.65.132-1.65.132-.836.132-.308.462,0,1.078,0ZM6.732-7.216l1.606-3.916c.088-.242.242-.374.352-.374.088,0,.2.132.286.374L10.34-7.37a1.4,1.4,0,0,1,.11.506c0,.33-.814.572-2.354.572-1.012,0-1.452-.088-1.452-.528A1.439,1.439,0,0,1,6.732-7.216Zm22.792.792L30.558-8.6a.91.91,0,0,0,.11-.418c0-.506-1.892-1.584-4.246-1.584a6.423,6.423,0,0,0-4.268,1.5,5.439,5.439,0,0,0-1.98,4.048c0,3.146,2.354,5.3,5.9,5.3a5.335,5.335,0,0,0,4.048-1.584,2.7,2.7,0,0,0,.946-1.584.51.51,0,0,0-.506-.55c-.374,0-.66.418-1.144.858a3.719,3.719,0,0,1-2.574,1.1C25.1-1.518,23.8-3.124,23.8-5.566c0-2.288.946-3.63,2.332-3.63A2.174,2.174,0,0,1,28.116-7.5c.33.99.4,1.54.836,1.54C29.194-5.962,29.37-6.116,29.524-6.424Zm12.98,0L43.538-8.6a.91.91,0,0,0,.11-.418c0-.506-1.892-1.584-4.246-1.584a6.423,6.423,0,0,0-4.268,1.5,5.439,5.439,0,0,0-1.98,4.048c0,3.146,2.354,5.3,5.9,5.3A5.335,5.335,0,0,0,43.1-1.342a2.7,2.7,0,0,0,.946-1.584.51.51,0,0,0-.506-.55c-.374,0-.66.418-1.144.858a3.719,3.719,0,0,1-2.574,1.1c-1.738,0-3.036-1.606-3.036-4.048,0-2.288.946-3.63,2.332-3.63A2.174,2.174,0,0,1,41.1-7.5c.33.99.4,1.54.836,1.54C42.174-5.962,42.35-6.116,42.5-6.424Zm7.414,2.288L55.9-6.094c.462-.154.638-.22.638-.462A4.43,4.43,0,0,0,55.528-8.69,4.932,4.932,0,0,0,51.414-10.6a5.7,5.7,0,0,0-3.85,1.54,5.079,5.079,0,0,0-1.65,3.828c0,3.146,2.42,5.5,5.874,5.5a6.694,6.694,0,0,0,4.422-1.65,1.838,1.838,0,0,0,.726-1.166.485.485,0,0,0-.506-.506c-.33,0-.77.352-1.5.814a3.865,3.865,0,0,1-2,.572A3.047,3.047,0,0,1,49.918-4.136Zm-.374-1.122a6.739,6.739,0,0,1-.352-1.8c0-1.276.7-2.09,1.65-2.09A2.418,2.418,0,0,1,53-6.8c0,.22-.176.418-.528.528ZM59-2.288,60.1-.132c.374.7.572,1.1.88,1.1.22,0,.352-.22.594-.572a.83.83,0,0,1,.858-.506,24.344,24.344,0,0,0,2.882.352c2.464,0,4-1.386,4-3.432,0-1.65-1.144-2.728-3.454-3.41-2.354-.682-3.63-.88-3.63-1.716,0-.462.506-.814,1.364-.814A5.784,5.784,0,0,1,66.99-7.81c.528.352.836.66,1.1.66a.406.406,0,0,0,.418-.462,1.543,1.543,0,0,0-.286-.638L66.88-10.472c-.154-.264-.286-.44-.506-.44-.4,0-.748.7-1.276.7a22.263,22.263,0,0,0-2.684-.4c-2.112,0-3.52,1.276-3.52,2.838,0,1.892,1.452,2.618,4.224,3.564,1.738.594,2.728.858,2.728,1.628,0,.572-.682.99-1.914.99a5.577,5.577,0,0,1-3.168-.968c-1.012-.726-1.5-1.276-1.826-1.276a.381.381,0,0,0-.4.4A3.8,3.8,0,0,0,59-2.288Zm12.958,0,1.1,2.156c.374.7.572,1.1.88,1.1.22,0,.352-.22.594-.572a.83.83,0,0,1,.858-.506,24.344,24.344,0,0,0,2.882.352c2.464,0,4-1.386,4-3.432,0-1.65-1.144-2.728-3.454-3.41-2.354-.682-3.63-.88-3.63-1.716,0-.462.506-.814,1.364-.814a5.784,5.784,0,0,1,3.388,1.32c.528.352.836.66,1.1.66a.406.406,0,0,0,.418-.462,1.543,1.543,0,0,0-.286-.638l-1.342-2.222c-.154-.264-.286-.44-.506-.44-.4,0-.748.7-1.276.7a22.263,22.263,0,0,0-2.684-.4c-2.112,0-3.52,1.276-3.52,2.838,0,1.892,1.452,2.618,4.224,3.564,1.738.594,2.728.858,2.728,1.628,0,.572-.682.99-1.914.99a5.577,5.577,0,0,1-3.168-.968c-1.012-.726-1.5-1.276-1.826-1.276a.381.381,0,0,0-.4.4A3.8,3.8,0,0,0,71.962-2.288Z" transform="translate(-0.132 15.642)" fill="#fff"/></svg>