<svg xmlns="http://www.w3.org/2000/svg" width="54.362" height="16.632" viewBox="0 0 54.362 16.632"><path d="M6.2,0H10.56c.88,0,1.32-.264,1.32-.924s-.528-.7-1.034-.946c-.374-.176-.506-.462-.506-.99v-9.724c0-.748.286-.946,1.364-.946,1.562,0,2.442.682,3.63,1.826.462.44.726.858,1.166.858a.593.593,0,0,0,.616-.572,12.806,12.806,0,0,0-1.452-3.41c-.462-.9-.638-1.408-1.166-1.408-.44,0-.638.594-1.716.594H4.51c-1.056,0-.968-.726-1.606-.726-.374,0-.726.4-1.144,1.144-1.166,2.09-1.848,3.3-1.848,3.762a.528.528,0,0,0,.528.594c.462,0,.88-.594,1.738-1.342A4.109,4.109,0,0,1,5.3-13.486c.968,0,1.122.132,1.122.924v9.7c0,.528-.11.814-.484.99-.506.242-1.056.286-1.056.946S5.324,0,6.2,0ZM19.118-7.04c0,4.554,3.146,7.3,8.668,7.3,5.3,0,8.514-2.926,8.514-7.458a8.481,8.481,0,0,0-2.53-6.2A8.588,8.588,0,0,0,27.7-15.906a8.575,8.575,0,0,0-7.106,3.872A9.016,9.016,0,0,0,19.118-7.04Zm4.664-.33a9.446,9.446,0,0,1,1.144-4.576,3.321,3.321,0,0,1,2.816-2c2.156,0,3.938,2.684,3.938,6.688,0,3.454-1.562,5.39-3.938,5.39C25.432-1.87,23.782-3.982,23.782-7.37Zm20.79,4.532V-3.916c0-.462.2-.638.836-.638s1.3.066,1.958.066c4.62,0,6.908-1.474,6.908-4.554,0-2.332-1.3-4.268-3.762-5.5a13.527,13.527,0,0,0-6.27-1.1H40.436c-.88,0-1.32.264-1.32.924s.55.7,1.056.946c.374.176.484.462.484.99v9.944c0,.528-.11.792-.484.968-.506.242-1.056.286-1.056.946s.44.924,1.32.924h4.356c.88,0,1.32-.264,1.32-.924s-.528-.7-1.034-.946C44.7-2.046,44.572-2.31,44.572-2.838Zm.022-4.686v-4.994c0-.748.462-1.078,1.43-1.078A3.749,3.749,0,0,1,49.9-9.812c0,2.09-1.43,3.388-3.828,3.388C44.814-6.424,44.594-6.71,44.594-7.524Z" transform="translate(0.088 16.368)" fill="#fff"/></svg>